<?xml version="1.0" encoding="UTF-8"?>
<svg version="1.1" xmlns="http://www.w3.org/2000/svg" width="1275" height="209">
<path d="M0 0 C0.74139221 -0.0033284 1.48278442 -0.0066568 2.24664307 -0.01008606 C3.82034686 -0.01516006 5.39406147 -0.01749424 6.96777344 -0.01733398 C9.3667198 -0.01950957 11.76519827 -0.03762945 14.1640625 -0.05664062 C15.69270676 -0.0595767 17.22135321 -0.06156006 18.75 -0.0625 C19.82214752 -0.07327827 19.82214752 -0.07327827 20.91595459 -0.08427429 C24.93126704 -0.06602939 28.05227586 0.3240257 31.640625 2.16796875 C36.39731971 7.08321995 38.24949885 14.30270722 40.3984375 20.609375 C41.49660648 23.7553874 42.70210566 26.79488283 44.015625 29.85546875 C46.09089665 34.74260538 47.9554159 39.67883015 49.765625 44.66796875 C53.21426616 54.16442513 56.90818609 63.55891599 60.64501953 72.9453125 C63.41419041 79.9309701 66.02762322 86.94518802 68.51000977 94.03735352 C69.93851788 97.99281875 71.55408818 101.85184416 73.1953125 105.72265625 C78.65947791 118.74804516 83.73859687 131.92237061 88.640625 145.16796875 C88.91567871 145.88017578 89.19073242 146.59238281 89.47412109 147.32617188 C91.640625 152.95984265 91.640625 152.95984265 91.640625 155.16796875 C95.52383855 152.57915972 95.66958913 150.71049585 97.015625 146.29296875 C98.44634986 141.63094694 100.02350579 137.16355964 101.92578125 132.671875 C103.93636478 127.92325312 105.81529574 123.14426097 107.61328125 118.3125 C107.86601807 117.63346619 108.11875488 116.95443237 108.37915039 116.25482178 C109.4178274 113.45747947 110.45258538 110.65869799 111.48657227 107.85961914 C116.44544955 94.45251391 116.44544955 94.45251391 118.63671875 89.6796875 C120.74153136 85.09439592 122.47232359 80.37782778 124.22546387 75.65065002 C126.12246024 70.5379946 128.06507907 65.4451838 130.04296875 60.36328125 C130.3322525 59.61995544 130.62153625 58.87662964 130.91958618 58.11077881 C131.80501962 55.83788381 132.69152689 53.56540966 133.578125 51.29296875 C134.46035764 49.02869366 135.34230934 46.76430926 136.22425842 44.49992371 C136.80954985 42.99776254 137.39518975 41.4957371 137.98118591 39.99385071 C139.50480066 36.08835823 141.02323522 32.18096037 142.53344727 28.27026367 C143.00005516 27.06410904 143.00005516 27.06410904 143.47608948 25.83358765 C144.06600403 24.30816615 144.65466984 22.78226087 145.24180603 21.25576782 C151.80138222 4.31034917 151.80138222 4.31034917 156.25610352 1.54345703 C160.10805747 -0.0219984 163.36351033 -0.21648221 167.4453125 -0.125 C168.5312822 -0.11863274 168.5312822 -0.11863274 169.63919067 -0.11213684 C171.93172787 -0.09546097 174.22335746 -0.05783206 176.515625 -0.01953125 C178.07811222 -0.00446996 179.64061335 0.00921591 181.203125 0.02148438 C185.01597005 0.05440582 188.82814411 0.10610873 192.640625 0.16796875 C192.13118382 5.52731913 191.23753028 9.81074321 189.09375 14.80078125 C188.84067078 15.39994354 188.58759155 15.99910583 188.32684326 16.61642456 C187.52418573 18.5127838 186.70835291 20.40306553 185.890625 22.29296875 C184.82781983 24.77241545 183.77118666 27.25441661 182.71875 29.73828125 C182.4571106 30.3543927 182.19547119 30.97050415 181.92590332 31.60528564 C179.68386077 36.94171027 177.75546972 42.36605476 175.84545898 47.82788086 C174.33813746 52.00653653 172.64379242 56.08700776 170.90869141 60.17529297 C169.58545078 63.2981816 168.30202057 66.4351186 167.02734375 69.578125 C166.58793457 70.66077637 166.14852539 71.74342773 165.69580078 72.85888672 C165.24446777 73.97150879 164.79313477 75.08413086 164.328125 76.23046875 C161.02665174 84.35760099 157.69346221 92.46830409 154.265625 100.54296875 C151.23287623 107.69461001 148.37559614 114.89649258 145.640625 122.16796875 C144.80979894 124.35642226 143.97643271 126.54391297 143.140625 128.73046875 C142.59921875 130.15552734 142.59921875 130.15552734 142.046875 131.609375 C139.98525335 136.82642312 137.80511742 141.99291955 135.640625 147.16796875 C133.69924924 151.83303033 131.76293238 156.50017954 129.828125 161.16796875 C129.56838898 161.79405029 129.30865295 162.42013184 129.04104614 163.06518555 C125.3197926 172.03895888 121.65050938 181.03128396 118.1394043 190.08984375 C117.84976807 190.8271875 117.56013184 191.56453125 117.26171875 192.32421875 C117.0186499 192.95134766 116.77558105 193.57847656 116.52514648 194.22460938 C116.23325439 194.86591797 115.9413623 195.50722656 115.640625 196.16796875 C115.29870117 197.06217529 114.95677734 197.95638184 114.60449219 198.87768555 C112.640625 201.16796875 112.640625 201.16796875 110.82606506 201.59988403 C108.40121402 201.74960963 106.02610531 201.72916678 103.59765625 201.65625 C102.7140593 201.64917526 101.83046234 201.64210052 100.92008972 201.6348114 C98.09690809 201.60681401 95.27570741 201.54406745 92.453125 201.48046875 C90.53974218 201.45539271 88.62632828 201.43257833 86.71289062 201.41210938 C82.02137173 201.35696998 77.33133423 201.27066195 72.640625 201.16796875 C71.52526529 198.97301501 70.41391214 196.77617698 69.3046875 194.578125 C68.99281494 193.9653772 68.68094238 193.35262939 68.35961914 192.72131348 C65.32935759 186.70249123 62.95835658 180.49184566 60.640625 174.16796875 C57.89968443 166.92774837 55.06764407 159.74153887 52.06640625 152.60546875 C50.34439512 148.45377068 48.67845157 144.28114891 47.015625 140.10546875 C43.74751344 131.89959813 40.42136223 123.71849596 37.078125 115.54296875 C33.64405338 107.14112822 30.24625 98.72959412 27.00952148 90.24951172 C25.09312309 85.24717164 23.04333967 80.30613858 20.97460938 75.36499023 C18.72725884 69.97899917 16.52848954 64.57328889 14.328125 59.16796875 C13.84883545 57.99097412 13.3695459 56.81397949 12.87573242 55.60131836 C9.40739764 47.07444019 5.96815278 38.53646524 2.5625 29.984375 C1.18672195 26.5299136 -0.2006052 23.08030636 -1.59375 19.6328125 C-1.96218018 18.71878662 -2.33061035 17.80476074 -2.71020508 16.86303711 C-3.41634463 15.11172854 -4.12440812 13.36119404 -4.8347168 11.61157227 C-5.15093994 10.82580811 -5.46716309 10.04004395 -5.79296875 9.23046875 C-6.07197021 8.54082031 -6.35097168 7.85117188 -6.63842773 7.140625 C-7.36389866 5.1555911 -7.96915509 3.24614924 -8.359375 1.16796875 C-6.40511195 -0.7862943 -2.66869306 0.00410837 0 0 Z " fill="#000000" transform="translate(11.359375,2.83203125)"/>
<path d="M0 0 C1.90610868 -0.02158839 3.81211801 -0.05570142 5.71777344 -0.10253906 C8.46195865 -0.16941236 11.20409044 -0.19697712 13.94897461 -0.21606445 C14.80014359 -0.24389511 15.65131256 -0.27172577 16.52827454 -0.30039978 C18.84864737 -0.29232517 20.8169004 -0.2109602 23.05444336 0.4050293 C26.15151932 3.85074127 27.76721361 7.70002649 29.46850586 11.97924805 C29.89035156 13.02387207 30.31219727 14.06849609 30.74682617 15.14477539 C31.39409668 16.75860107 31.39409668 16.75860107 32.05444336 18.4050293 C32.93307037 20.51745213 33.81590225 22.62813082 34.70288086 24.73706055 C35.15147461 25.80375977 35.60006836 26.87045898 36.06225586 27.96948242 C36.51342773 29.04133789 36.96459961 30.11319336 37.42944336 31.2175293 C37.87288086 32.2777832 38.31631836 33.33803711 38.77319336 34.43041992 C41.23472781 40.27128953 43.79733339 46.04584757 46.50366211 51.77612305 C49.75734011 58.67320526 52.76077739 65.65643054 55.68133545 72.70019531 C56.51765161 74.71702643 57.35808342 76.7321025 58.19946289 78.74682617 C60.24179244 83.63932453 62.27715494 88.53470733 64.31176758 93.43041992 C65.34852265 95.92299546 66.38872615 98.41410626 67.42944336 100.9050293 C67.70199951 101.56535156 67.97455566 102.22567383 68.25537109 102.90600586 C70.16535732 107.47545939 72.24377953 111.95710626 74.35522461 116.4362793 C77.7528202 123.65842728 80.90730602 130.96848874 83.99514771 138.32754517 C85.50366287 141.92232831 87.0215201 145.51316528 88.53881836 149.10424805 C88.83893326 149.81506027 89.13904816 150.5258725 89.44825745 151.25822449 C92.52451733 158.53519783 95.67666495 165.77846026 98.84082031 173.01757812 C101.3304599 178.71938429 103.76752062 184.43672978 106.11694336 190.19799805 C107.00042758 192.41717907 107.00042758 192.41717907 108.24194336 194.39331055 C109.31137751 197.04118837 108.68804583 198.67374205 108.05444336 201.4050293 C102.85755152 201.38561518 97.66235455 201.3339197 92.46606445 201.25244141 C90.69890582 201.22926184 88.93160906 201.21486576 87.16430664 201.20947266 C84.62160163 201.20018228 82.08106896 201.15919449 79.53881836 201.11206055 C78.75013367 201.11599319 77.96144897 201.11992584 77.14886475 201.12397766 C73.45195746 201.02590599 71.49330917 200.8030374 68.71264648 198.28125 C66.90256685 195.14159333 65.41961595 192.03071086 64.03881836 188.6784668 C63.77812561 188.04897125 63.51743286 187.41947571 63.24884033 186.77090454 C62.70384347 185.44972673 62.16285965 184.12688697 61.62573242 182.80249023 C60.8023903 180.77497356 59.96460255 178.75388227 59.12475586 176.7331543 C55.05444336 166.8268609 55.05444336 166.8268609 55.05444336 163.4050293 C29.64444336 162.7450293 4.23444336 162.0850293 -21.94555664 161.4050293 C-18.56808204 150.14678061 -18.56808204 150.14678061 -16.71899414 145.86987305 C-16.32711914 144.95915039 -15.93524414 144.04842773 -15.53149414 143.11010742 C-15.13188477 142.19680664 -14.73227539 141.28350586 -14.32055664 140.3425293 C-13.70954102 138.92037109 -13.70954102 138.92037109 -13.08618164 137.46948242 C-10.08998418 130.54945684 -10.08998418 130.54945684 -8.94555664 129.4050293 C-7.47305019 129.28270286 -5.99489953 129.2272837 -4.51757812 129.19970703 C-3.57667831 129.17976181 -2.6357785 129.15981659 -1.66636658 129.13926697 C-0.64346024 129.12255447 0.37944611 129.10584198 1.43334961 129.08862305 C2.99604836 129.0574514 2.99604836 129.0574514 4.59031677 129.02565002 C7.93245583 128.96003873 11.27467621 128.90121599 14.61694336 128.8425293 C16.87671754 128.79935508 19.13648337 128.75574116 21.39624023 128.71166992 C26.94888757 128.60434563 32.50161657 128.50260118 38.05444336 128.4050293 C37.33907392 125.45621947 36.46350895 122.67985228 35.38256836 119.8425293 C35.05047363 118.96935059 34.71837891 118.09617187 34.3762207 117.1965332 C34.02253418 116.27533691 33.66884766 115.35414062 33.30444336 114.4050293 C32.9417334 113.4567627 32.57902344 112.50849609 32.20532227 111.53149414 C29.98001246 105.73974127 27.68715542 99.98565264 25.25756836 94.27612305 C24.10829472 91.53353823 23.01434446 88.7726582 21.92993164 86.00390625 C19.39581966 79.54991707 16.64771705 73.24667992 13.67138672 66.98461914 C11.06815862 61.49462156 8.6734757 55.93023763 6.31616211 50.33081055 C5.29973961 47.97384321 4.23487223 45.68275825 3.05444336 43.4050293 C0.18157493 44.84146351 -0.00230535 46.61588062 -1.15258789 49.5847168 C-1.57475586 50.65979492 -1.99692383 51.73487305 -2.43188477 52.8425293 C-2.86952148 53.9769043 -3.3071582 55.1112793 -3.75805664 56.2800293 C-6.5882098 63.55878932 -9.49191663 70.75540482 -12.76904297 77.84545898 C-14.55353395 81.72771743 -16.22603025 85.6545058 -17.88305664 89.5925293 C-18.2244165 90.40206055 -18.56577637 91.2115918 -18.91748047 92.0456543 C-21.38437486 97.945427 -23.66377628 103.89807926 -25.86499023 109.90112305 C-27.60799694 114.61595023 -29.6018483 119.15561753 -31.73071289 123.70581055 C-34.04254074 128.84237982 -35.96369722 134.1345219 -37.94555664 139.4050293 C-41.13385116 147.80419268 -44.45130792 156.12867868 -47.94555664 164.4050293 C-48.56178323 165.87624061 -49.17764232 167.34760588 -49.79321289 168.8190918 C-51.49286736 172.87859368 -53.2048365 176.93275308 -54.92260742 180.98461914 C-55.59899174 182.58501869 -56.27190543 184.18688994 -56.94116211 185.7902832 C-57.8718201 188.01964277 -58.81363224 190.24397363 -59.75805664 192.4675293 C-60.03568848 193.14009766 -60.31332031 193.81266602 -60.59936523 194.50561523 C-62.05594229 197.90045804 -62.78707624 199.29937569 -65.94555664 201.4050293 C-68.70342079 201.57680705 -71.35771188 201.63719167 -74.11352539 201.6003418 C-74.90833817 201.5975119 -75.70315094 201.59468201 -76.52204895 201.59176636 C-79.05920502 201.58057635 -81.59600736 201.5554742 -84.13305664 201.5300293 C-85.85375467 201.51999796 -87.57445823 201.51087238 -89.29516602 201.50268555 C-93.51209907 201.4806409 -97.72876789 201.44611936 -101.94555664 201.4050293 C-103.26646953 197.44229062 -101.88638846 195.47906029 -100.19555664 191.9050293 C-96.17726969 183.097322 -92.55132917 174.14495533 -88.94262695 165.1628418 C-86.44946364 158.98860679 -83.85733672 152.89115803 -81.03344727 146.86035156 C-79.91034849 144.32556601 -78.97986871 141.77360875 -78.07055664 139.1550293 C-76.58306918 134.94757525 -74.83829981 130.97062117 -72.90649414 126.94799805 C-68.0862013 116.76523405 -63.79556505 106.3573109 -59.44555664 95.9675293 C-57.81174087 92.07232446 -56.17621813 88.17784043 -54.53930664 84.28393555 C-54.14114243 83.33666595 -53.74297821 82.38939636 -53.33274841 81.41342163 C-50.80837657 75.41992203 -48.23886762 69.44879909 -45.61781311 63.49702454 C-43.15087792 57.89197302 -40.73092793 52.26731498 -38.31665039 46.6394043 C-37.5009678 44.7409356 -36.68521199 42.84249835 -35.86938477 40.9440918 C-34.62160447 38.04022034 -33.37487806 35.13591881 -32.13134766 32.23022461 C-18.39985963 0.15691154 -18.39985963 0.15691154 0 0 Z " fill="#000000" transform="translate(295.945556640625,2.594970703125)"/>
<path d="M0 0 C1.47583955 0.0001591 2.95168467 0.00585225 4.42749023 0.01586914 C5.20293686 0.01728409 5.97838348 0.01869904 6.77732849 0.02015686 C9.26361893 0.02577194 11.74982059 0.03832693 14.23608398 0.05102539 C15.91772331 0.05603845 17.59936405 0.06060169 19.28100586 0.06469727 C23.41189965 0.07574626 27.54272674 0.09302094 31.67358398 0.11352539 C32.88358067 2.53351876 32.80354196 4.06655738 32.81161499 6.77079773 C32.81706833 7.75315399 32.82252167 8.73551025 32.82814026 9.74763489 C32.82918259 10.82961655 32.83022491 11.91159821 32.83129883 13.02636719 C32.83637955 14.16323975 32.84146027 15.3001123 32.84669495 16.47143555 C32.85742022 18.94922291 32.86603188 21.4270201 32.87281418 23.9048214 C32.88459334 27.83673027 32.90404847 31.76852882 32.92593384 35.70039368 C32.98777319 46.88339247 33.0416469 58.06638895 33.07495117 69.24951172 C33.09540006 76.08597548 33.13140454 82.92223532 33.17570877 89.75858498 C33.18979686 92.35582971 33.19857481 94.95310926 33.20176315 97.55039024 C32.88044193 122.13128184 32.88044193 122.13128184 40.67358398 145.11352539 C41.15569336 146.0068457 41.63780273 146.90016602 42.13452148 147.82055664 C48.92918958 159.47995189 57.89315525 165.23043608 70.67358398 169.11352539 C74.14463451 170.02608848 74.14463451 170.02608848 77.67358398 170.11352539 C78.60299805 170.16379883 79.53241211 170.21407227 80.48999023 170.26586914 C93.68149861 170.66272559 104.43284319 167.95323038 115.67358398 161.11352539 C116.99964751 160.4325131 118.3304948 159.76031258 119.67358398 159.11352539 C119.67358398 158.45352539 119.67358398 157.79352539 119.67358398 157.11352539 C121.00691732 155.78019206 122.34025065 154.44685872 123.67358398 153.11352539 C132.94770854 141.44607838 134.96885828 126.21767743 134.9765625 111.81079102 C134.9892215 110.02851608 134.9892215 110.02851608 135.00213623 108.2102356 C135.02335905 104.9835076 135.03615109 101.75687998 135.04536939 98.53009987 C135.05736428 95.14375752 135.08120513 91.75749975 135.10398865 88.37121582 C135.1454573 81.97075041 135.17796368 75.57027726 135.2064628 69.16974211 C135.25766766 57.6854419 135.31957843 46.20120665 135.39180321 34.71701956 C135.41263417 31.34909823 135.43094029 27.98119742 135.44378853 24.61323547 C135.45840082 20.86915761 135.47867721 17.12514822 135.5 13.38110352 C135.50261337 12.26321442 135.50522675 11.14532532 135.50791931 9.99356079 C135.51481781 8.97873627 135.52171631 7.96391174 135.52882385 6.91833496 C135.53267877 6.03349678 135.53653368 5.1486586 135.54050541 4.23700714 C135.67358398 2.11352539 135.67358398 2.11352539 136.67358398 0.11352539 C148.55358398 0.11352539 160.43358398 0.11352539 172.67358398 0.11352539 C173.87657903 2.51951547 173.79936546 4.01438761 173.80056763 6.70159912 C173.80338745 7.66857224 173.80620728 8.63554535 173.80911255 9.63182068 C173.8060762 11.22909752 173.8060762 11.22909752 173.80297852 12.85864258 C173.80560699 14.53710014 173.80560699 14.53710014 173.80828857 16.24946594 C173.81270907 19.96979296 173.80976602 23.69007283 173.80639648 27.41040039 C173.80707004 29.99717213 173.80804049 32.58394381 173.80929565 35.17071533 C173.81077336 40.60820167 173.80871318 46.04567026 173.80395508 51.4831543 C173.79854517 57.73701858 173.80025093 63.9908501 173.80578148 70.24471354 C173.81090433 76.28242229 173.81031243 82.32011527 173.80739975 88.35782623 C173.80673622 90.91405492 173.80753867 93.47028445 173.8098793 96.02651215 C173.83011002 124.36447813 173.69562196 157.01505776 152.67358398 179.11352539 C152.01358398 179.11352539 151.35358398 179.11352539 150.67358398 179.11352539 C150.34358398 180.10352539 150.01358398 181.09352539 149.67358398 182.11352539 C149.01358398 182.11352539 148.35358398 182.11352539 147.67358398 182.11352539 C147.67358398 182.77352539 147.67358398 183.43352539 147.67358398 184.11352539 C129.46361022 201.02529293 104.27144939 206.9231688 80.02124023 206.37133789 C72.77658074 206.04702349 65.74026689 204.67256677 58.67358398 203.11352539 C57.77381836 202.92016602 56.87405273 202.72680664 55.94702148 202.52758789 C43.69985402 199.37363507 31.92916664 192.60592843 22.67358398 184.11352539 C21.91819336 183.4496582 21.16280273 182.78579102 20.38452148 182.10180664 C9.60676628 172.0833091 2.5724381 159.21825664 -1.32641602 145.11352539 C-1.7078627 143.78905144 -1.7078627 143.78905144 -2.09701538 142.43782043 C-5.28068809 129.32819982 -4.73176469 115.98497902 -4.6635294 102.57669497 C-4.64832361 99.00445684 -4.64966377 95.4322199 -4.64886475 91.85995483 C-4.64519548 85.88062306 -4.63033342 79.90140772 -4.60766602 73.92211914 C-4.57860453 66.24040107 -4.56842172 58.55877551 -4.56398392 50.87700844 C-4.5600136 44.2598137 -4.54752708 37.64263913 -4.53363705 31.02545881 C-4.52953729 28.90065653 -4.52661255 26.77585496 -4.52384186 24.65105057 C-4.51806067 20.71094111 -4.50339808 16.77089299 -4.48754883 12.83081055 C-4.48587204 11.06218407 -4.48587204 11.06218407 -4.48416138 9.25782776 C-4.47845123 8.19270462 -4.47274109 7.12758148 -4.46685791 6.03018188 C-4.46388325 5.0992956 -4.46090858 4.16840931 -4.45784378 3.20931435 C-4.2380258 -0.29597308 -3.62546623 0.12373151 0 0 Z " fill="#000000" transform="translate(431.326416015625,2.886474609375)"/>
<path d="M0 0 C1.51815699 0.00015911 3.0363194 0.00585313 4.55444336 0.01586914 C5.35208603 0.01728409 6.1497287 0.01869904 6.97154236 0.02015686 C9.52916146 0.02577223 12.08669429 0.03832727 14.64428711 0.05102539 C16.37410356 0.05603841 18.10392137 0.06060166 19.83374023 0.06469727 C24.08312264 0.07574664 28.33244023 0.09302153 32.58178711 0.11352539 C33.69551056 8.6231775 33.71735116 17.09632374 33.6953125 25.66088867 C33.69502993 27.20914203 33.69518972 28.75739552 33.695755 30.3056488 C33.69604027 34.48055524 33.69018749 38.65543257 33.68318105 42.83033228 C33.67690226 47.2038524 33.67634014 51.57737329 33.67515564 55.95089722 C33.67205562 64.22019894 33.66386023 72.48948734 33.65380615 80.75878322 C33.64260363 90.17842295 33.63712416 99.59806333 33.63211071 109.01770806 C33.62167643 128.38298804 33.60410286 147.74825564 33.58178711 167.11352539 C34.85743027 167.11130478 36.13307343 167.10908417 37.44737244 167.10679626 C49.44071859 167.08656712 61.4340613 167.07155435 73.42742062 167.06171322 C79.59403631 167.05648381 85.76063829 167.04938512 91.92724609 167.03808594 C97.87294717 167.0272591 103.818635 167.02124899 109.76434517 167.01864815 C112.03825654 167.01679353 114.31216715 167.01317222 116.58607292 167.00779533 C119.75905831 167.00058761 122.93198827 166.99953434 126.10498047 167 C127.05516052 166.99640472 128.00534058 166.99280945 128.98431396 166.98910522 C135.46773495 166.99947323 135.46773495 166.99947323 136.58178711 168.11352539 C136.67022504 170.56182966 136.69707463 172.98173138 136.67944336 175.42993164 C136.67732094 176.52651344 136.67732094 176.52651344 136.67515564 177.64524841 C136.66954119 179.98888171 136.65698633 182.33242078 136.64428711 184.67602539 C136.63927397 186.26131047 136.63471074 187.84659705 136.63061523 189.43188477 C136.61956708 193.32580149 136.60229283 197.21964745 136.58178711 201.11352539 C118.34532712 201.13685348 100.108871 201.15450412 81.87239933 201.16533756 C73.40548772 201.17050071 64.93858536 201.17754377 56.47167969 201.18896484 C49.09461617 201.19891111 41.71755936 201.20537868 34.34048933 201.20761389 C30.43196657 201.20892109 26.52346299 201.21200756 22.61494637 201.21925545 C18.94032269 201.22601476 15.26572618 201.22814254 11.59109688 201.22663307 C9.590991 201.22704177 7.59088813 201.23243743 5.59078979 201.23794556 C3.82175545 201.23588356 3.82175545 201.23588356 2.01698303 201.23377991 C0.98549668 201.2347017 -0.04598967 201.23562349 -1.10873318 201.23657322 C-3.41821289 201.11352539 -3.41821289 201.11352539 -4.41821289 200.11352539 C-4.51819961 197.54863874 -4.55262189 195.01061474 -4.54519653 192.44519043 C-4.54753652 191.22602676 -4.54753652 191.22602676 -4.54992378 189.98223352 C-4.55393717 187.237568 -4.55074283 184.49295703 -4.54760742 181.74829102 C-4.54896131 179.7891995 -4.55074118 177.83010823 -4.55291748 175.87101746 C-4.55749327 170.53439655 -4.55570166 165.19779489 -4.55253839 159.86117363 C-4.55001554 154.28956931 -4.55235212 148.71796669 -4.55392456 143.1463623 C-4.55574648 133.78792015 -4.55333937 124.42948588 -4.54858398 115.07104492 C-4.54314132 104.23459126 -4.54490396 93.39815641 -4.55041039 82.56170321 C-4.5549409 73.2759677 -4.55559238 63.99023788 -4.55297172 54.70450163 C-4.5514086 49.15055756 -4.55121613 43.59662234 -4.55450821 38.04267883 C-4.55738602 32.8225192 -4.5554129 27.60238393 -4.54961395 22.38222694 C-4.54828587 20.46047824 -4.54868128 18.53872751 -4.55087662 16.6169796 C-4.55358624 14.005245 -4.55020932 11.39358981 -4.54519653 8.78186035 C-4.54742725 8.0111566 -4.54965798 7.24045285 -4.5519563 6.44639444 C-4.52831811 0.15039411 -4.52831811 0.15039411 0 0 Z " fill="#000000" transform="translate(663.418212890625,2.886474609375)"/>
<path d="M0 0 C22.14797429 -0.02332673 44.29594656 -0.04097806 66.44393063 -0.05181217 C76.72686612 -0.05697561 87.009794 -0.06401922 97.29272461 -0.07543945 C106.2519195 -0.08538483 115.21110887 -0.09185308 124.17030913 -0.09408849 C128.91720071 -0.09539585 133.66407652 -0.09848327 138.41096306 -0.10573006 C142.87353026 -0.11248797 147.33607509 -0.11461743 151.79864693 -0.11310768 C153.44142401 -0.11338411 155.08420181 -0.11539059 156.72697449 -0.11920547 C158.95997371 -0.12413916 161.19288709 -0.12299951 163.42588806 -0.12025452 C164.67860473 -0.12117631 165.93132139 -0.1220981 167.22199917 -0.12304783 C170 0 170 0 171 1 C171.10082764 3.43660446 171.13972603 5.84424701 171.1328125 8.28125 C171.13376923 9.00993286 171.13472595 9.73861572 171.13571167 10.48937988 C171.13639335 12.0327971 171.13453988 13.57621717 171.13037109 15.11962891 C171.12502262 17.489974 171.13031642 19.86012959 171.13671875 22.23046875 C171.13605797 23.72656292 171.1347768 25.22265697 171.1328125 26.71875 C171.13483673 27.43228638 171.13686096 28.14582275 171.13894653 28.88098145 C171.11495191 33.88504809 171.11495191 33.88504809 170 35 C168.37536134 35.08826656 166.74688139 35.10690855 165.11987305 35.09765625 C163.55640388 35.09270142 163.55640388 35.09270142 161.96134949 35.08764648 C160.25378227 35.07519897 160.25378227 35.07519897 158.51171875 35.0625 C157.34300735 35.05871338 156.17429596 35.05492676 154.97016907 35.05102539 C149.95394637 35.03466286 144.93780408 35.00680879 139.92163086 34.97949219 C136.26416409 34.96125166 132.60671128 34.94924451 128.94921875 34.9375 C127.83310715 34.92920166 126.71699554 34.92090332 125.56706238 34.91235352 C124.49007584 34.90905029 123.41308929 34.90574707 122.3034668 34.90234375 C121.37382614 34.89710693 120.44418549 34.89187012 119.4863739 34.88647461 C114.30798559 35.05509638 109.15940055 35.53777633 104 36 C103.99576806 36.8442903 103.99153612 37.68858061 103.98717594 38.55845547 C103.88401624 59.07134322 103.77540084 79.58419569 103.66066074 100.09702206 C103.60530658 110.01673626 103.55182104 119.93645406 103.50268555 129.85620117 C103.45987051 138.49899238 103.4135994 147.14175688 103.36312145 155.78450686 C103.33649884 160.36370895 103.31164532 164.94290567 103.29092598 169.5221386 C103.27139294 173.82714303 103.24725936 178.13209651 103.21950912 182.43705559 C103.21012097 184.02177 103.20245208 185.60649562 103.19658089 187.19122696 C103.18834953 189.34543154 103.1740816 191.49951143 103.15821838 193.65367126 C103.15176583 194.86214187 103.14531328 196.07061247 103.1386652 197.31570339 C103 200 103 200 102 201 C99.41810554 201.10091475 96.863535 201.13971499 94.28125 201.1328125 C93.12163757 201.13424759 93.12163757 201.13424759 91.93859863 201.13571167 C90.30102456 201.13639341 88.66344781 201.13453957 87.02587891 201.13037109 C84.51068079 201.12502271 81.99566127 201.13031626 79.48046875 201.13671875 C77.89322877 201.13605797 76.3059889 201.1347768 74.71875 201.1328125 C73.96146606 201.13483673 73.20418213 201.13686096 72.4239502 201.13894653 C67.11495132 201.11495132 67.11495132 201.11495132 66 200 C65.89304965 197.90157158 65.85753616 195.79949699 65.84851074 193.69836426 C65.84427833 193.03259636 65.84004592 192.36682847 65.83568525 191.68088579 C65.82259331 189.43373944 65.81661948 187.18662862 65.81054688 184.93945312 C65.80260974 183.33503499 65.79422221 181.73061904 65.78541565 180.12620544 C65.76732118 176.66344326 65.75231908 173.20068598 65.73963928 169.73789978 C65.71947463 164.26830976 65.69181518 158.79877378 65.66296387 153.32922363 C65.59766735 140.73093267 65.54229944 128.13260161 65.48697662 115.53426361 C65.4361873 103.99141641 65.38333819 92.44858878 65.32245111 80.90578985 C65.29402665 75.462673 65.27045781 70.01956268 65.25052643 64.57640839 C65.23717953 61.19700379 65.21976502 57.81762925 65.20121574 54.43824959 C65.19343191 52.86482055 65.18737459 51.29138193 65.18312263 49.71793938 C65.17711469 47.57911979 65.1650859 45.44041849 65.15148926 43.30163574 C65.14375866 41.50193958 65.14375866 41.50193958 65.13587189 39.66588593 C65.30258803 37.07918874 65.30258803 37.07918874 64 36 C62.04727415 35.89212145 60.0906798 35.85372001 58.13500977 35.84228516 C56.25284508 35.82689194 56.25284508 35.82689194 54.33265686 35.81118774 C53.65793901 35.80774982 52.98322117 35.8043119 52.28805733 35.80076981 C50.18282152 35.78901456 48.07779403 35.76957159 45.97264099 35.74765015 C39.98598118 35.68591542 33.99934186 35.6319398 28.01245117 35.59863281 C24.3541972 35.57772911 20.69632102 35.54246121 17.03828239 35.49787521 C15.64164606 35.48367976 14.24494288 35.4749848 12.84823799 35.47182083 C10.89687259 35.46693225 8.94558709 35.44220054 6.99438477 35.41650391 C5.32678856 35.40437363 5.32678856 35.40437363 3.62550354 35.39199829 C2.75908737 35.26263885 1.8926712 35.13327942 1 35 C-1.36647741 31.45028388 -1.24573383 29.92773658 -1.23046875 25.72265625 C-1.22853516 24.48708984 -1.22660156 23.25152344 -1.22460938 21.97851562 C-1.21236328 20.68623047 -1.20011719 19.39394531 -1.1875 18.0625 C-1.18685547 16.77408203 -1.18621094 15.48566406 -1.18554688 14.15820312 C-1.13888174 4.20815972 -1.13888174 4.20815972 0 0 Z " fill="#000000" transform="translate(787,3)"/>
<path d="M0 0 C11.88 0 23.76 0 36 0 C37.01067759 4.04271038 37.14238072 7.65832692 37.13371277 11.78112793 C37.13597833 12.56984897 37.13824388 13.35857001 37.14057809 14.17119169 C37.14691317 16.8166166 37.14608905 19.46199021 37.14526367 22.10742188 C37.14825542 24.00297614 37.15165798 25.89852979 37.15544128 27.79408264 C37.16428262 32.94477979 37.16661942 38.09546032 37.16725707 43.24616432 C37.16820602 47.54312233 37.17188404 51.84007647 37.17542917 56.13703299 C37.18357377 66.2715331 37.18601335 76.40602433 37.18530273 86.54052734 C37.18470151 97.00379853 37.19526214 107.46701824 37.2110464 117.93027639 C37.22410809 126.90784241 37.22948723 135.88539156 37.22884732 144.86296701 C37.22859199 150.22750565 37.2314629 155.59199852 37.24202538 160.95652771 C37.25168363 165.99946876 37.2518012 171.04232005 37.24450874 176.08526421 C37.24346016 177.93802966 37.24584195 179.79080064 37.2518692 181.64355659 C37.25955329 184.16876835 37.25496826 186.69366735 37.24723816 189.21887207 C37.25238172 189.95544525 37.25752529 190.69201842 37.26282471 191.450912 C37.23570198 195.44839171 36.84724445 197.3055111 35 201 C23.78 201 12.56 201 1 201 C-1.13172963 196.73654075 -1.27921506 193.78179445 -1.24723816 189.17417908 C-1.24965257 188.38066892 -1.25206699 187.58715876 -1.25455457 186.76960284 C-1.26019497 184.1079558 -1.2515259 181.4465484 -1.24291992 178.78491211 C-1.24399271 176.87788325 -1.24593135 174.97085471 -1.24867249 173.06382751 C-1.25352413 167.88217789 -1.24586134 162.70061425 -1.23571944 157.51897502 C-1.22694489 152.10180809 -1.22869627 146.6846439 -1.2290802 141.26747131 C-1.22814334 132.17073119 -1.21945601 123.07402439 -1.20581055 113.97729492 C-1.19008009 103.45153271 -1.1848126 92.92580701 -1.1855461 82.40003389 C-1.1861559 72.28407975 -1.18105511 62.16813753 -1.17275429 52.05218697 C-1.16921863 47.74243642 -1.16739064 43.43269009 -1.16686058 39.12293816 C-1.16585792 34.05128831 -1.15976755 28.97966925 -1.14969444 23.90802956 C-1.14676742 22.0435594 -1.14554448 20.1790857 -1.14612198 18.31461334 C-1.14661084 15.77598831 -1.14097506 13.23745023 -1.13371277 10.69883728 C-1.13526137 9.95546031 -1.13680997 9.21208335 -1.1384055 8.44617981 C-1.12372857 5.35423122 -0.98583424 2.95750273 0 0 Z " fill="#000000" transform="translate(1000,3)"/>
<path d="M0 0 C4.53442529 -0.27422093 9.06393376 -0.47248476 13.60473633 -0.60424805 C15.14465433 -0.65920483 16.68400774 -0.73401213 18.22192383 -0.82983398 C30.96626019 -1.60334612 30.96626019 -1.60334612 35.87255859 2.26464844 C38.15897648 5.06994593 40.09210182 7.92805916 42 11 C42.98622331 12.20437549 43.99782507 13.38899686 45.046875 14.5390625 C45.49248779 15.04783936 45.93810059 15.55661621 46.3972168 16.08081055 C47.06684448 16.84518433 47.06684448 16.84518433 47.75 17.625 C52.86229195 23.52111582 57.62881047 29.63966169 62.33251953 35.86450195 C66.17394843 40.94463137 70.12123557 45.90420199 74.1953125 50.80078125 C79 56.65584416 79 56.65584416 79 59 C79.66 59 80.32 59 81 59 C82.37915676 60.65498811 83.67650388 62.37830374 84.9375 64.125 C85.74588913 65.23027024 86.55585268 66.33439026 87.3671875 67.4375 C87.79483398 68.02015625 88.22248047 68.6028125 88.66308594 69.203125 C90.90789003 72.22024664 93.23304175 75.17303155 95.5625 78.125 C96.03099365 78.71941895 96.4994873 79.31383789 96.98217773 79.92626953 C100.27417101 84.09578243 103.59022756 88.24568032 106.91796875 92.38671875 C108.47379711 94.33953146 110.01710851 96.29945219 111.55078125 98.26953125 C116.61725028 104.7730714 121.77440434 111.16483434 127.13354492 117.42993164 C130.4612166 121.3298588 133.64897427 125.31492321 136.7578125 129.390625 C137.90442424 130.94699514 137.90442424 130.94699514 139 132 C139.66 88.44 140.32 44.88 141 0 C152.88 0 164.76 0 177 0 C178.18882078 3.56646234 178.12590767 6.40250563 178.12698364 10.16925049 C178.12854363 10.90443681 178.13010362 11.63962312 178.13171089 12.39708781 C178.13570872 14.86793553 178.13253576 17.33872211 178.12939453 19.80957031 C178.13074925 21.57875606 178.13252958 23.34794153 178.13470459 25.11712646 C178.13927449 29.93185902 178.13749012 34.7465702 178.1343255 39.56130314 C178.13179489 44.60717387 178.13414185 49.65304277 178.13571167 54.69891357 C178.13753331 63.18632332 178.13512929 71.67372438 178.13037109 80.16113281 C178.1249495 89.94420933 178.12667578 99.72726494 178.1321975 109.51034093 C178.13675396 117.92245767 178.13736619 126.33456816 178.13475883 134.74668574 C178.13320724 139.76448963 178.13297101 144.78228374 178.13629532 149.80008698 C178.13921015 154.53113517 178.13713277 159.26215684 178.13140106 163.99320221 C178.13009176 165.71879024 178.13043597 167.44438056 178.13266373 169.16996765 C178.15688591 189.86016243 178.15688591 189.86016243 177 200 C173.61565087 203.38434913 162.90950751 201.77064149 157.99804688 201.78491211 C156.69029297 201.7566333 155.38253906 201.72835449 154.03515625 201.69921875 C152.8325415 201.67432373 151.62992676 201.64942871 150.39086914 201.6237793 C146.24372444 200.86087666 144.14061049 199.32989508 141 196.5625 C139.99283657 195.01070743 138.98955239 193.45316358 138.09033203 191.83642578 C136.36623667 188.93256431 134.24999529 186.35304609 132.16552734 183.70166016 C130.45788892 181.5259773 128.7898556 179.32473935 127.12890625 177.11328125 C123.80131408 172.70998072 120.33487427 168.44210361 116.8046875 164.19921875 C112 158.34415584 112 158.34415584 112 156 C111.34 156 110.68 156 110 156 C108.58084349 154.2808104 107.24061434 152.4962319 105.9375 150.6875 C102.04027635 145.33092811 97.93777439 140.234298 93.65234375 135.1796875 C92 133 92 133 92 131 C91.34 131 90.68 131 90 131 C88.6636595 129.38538264 87.40850099 127.70351159 86.1875 126 C82.5133304 120.96435151 78.69579169 116.07565246 74.75 111.25 C73.92701416 110.24308105 73.92701416 110.24308105 73.08740234 109.21582031 C71.95967892 107.83745537 70.83141946 106.45952883 69.70263672 105.08203125 C67.44699423 102.32376926 65.20477152 99.5547458 62.9621582 96.78588867 C52.34584068 83.6816033 52.34584068 83.6816033 41.375 70.875 C39 68 39 68 39 66 C38.34 66 37.68 66 37 66 C37.00092179 66.67752728 37.00184359 67.35505457 37.00279331 68.05311298 C37.02486343 84.52759044 37.04141884 101.00206323 37.05181217 117.47655201 C37.05697171 125.44343916 37.06400791 133.41031645 37.07543945 141.37719727 C37.08539672 148.31992639 37.09185592 155.26264837 37.09408849 162.20538443 C37.09539382 165.88258128 37.09846849 169.5597577 37.10573006 173.23694801 C37.11376461 177.33872006 37.11399046 181.44045644 37.11352539 185.54223633 C37.11712067 186.76574799 37.12071594 187.98925964 37.12442017 189.24984741 C37.1230455 190.36463974 37.12167084 191.47943207 37.12025452 192.62800598 C37.12117631 193.59865399 37.1220981 194.56930201 37.12304783 195.56936359 C37 198 37 198 36 201 C31.03377651 201.02465098 26.06758834 201.04283649 21.10131836 201.05493164 C19.41055684 201.0599719 17.71979971 201.06680405 16.02905273 201.07543945 C13.60399293 201.08751857 11.17899056 201.09323123 8.75390625 201.09765625 C7.61327477 201.10539818 7.61327477 201.10539818 6.44960022 201.11329651 C4.6326743 201.11349238 2.81586873 201.06197277 1 201 C-0.65048893 199.34951107 -0.16700809 197.41379113 -0.20532227 195.13720703 C-0.22525742 194.06816635 -0.24519257 192.99912567 -0.26573181 191.89768982 C-0.28245438 190.6965303 -0.29917694 189.49537079 -0.31640625 188.2578125 C-0.33727798 186.97209854 -0.35814972 185.68638458 -0.37965393 184.36170959 C-0.43704413 180.72314681 -0.48607838 177.08451311 -0.53263092 173.44579697 C-0.56246504 171.12771656 -0.59396295 168.80966312 -0.62567139 166.49160767 C-1.06790849 133.50189587 -1.10950462 100.50972881 -1.12211341 67.51758099 C-1.12376397 63.28733221 -1.12673444 59.05708721 -1.13081557 54.8268401 C-1.13795585 47.39331811 -1.13930732 39.95982977 -1.13438225 32.52630424 C-1.13334182 30.01043144 -1.13390892 27.49455741 -1.13614082 24.97868538 C-1.13868188 21.51465718 -1.13491113 18.05069335 -1.12939453 14.58666992 C-1.13142159 13.56545107 -1.13344866 12.54423222 -1.13553715 11.49206734 C-1.13271449 10.5572698 -1.12989183 9.62247227 -1.12698364 8.65934753 C-1.12660662 7.85080417 -1.12622959 7.0422608 -1.12584114 6.20921612 C-1.00106218 4.01864717 -0.60586174 2.10397826 0 0 Z " fill="#000000" transform="translate(1095,3)"/>
</svg>
